<?xml version="1.0" encoding="UTF-8"?><svg id="Layer_1" xmlns="http://www.w3.org/2000/svg" xmlns:xlink="http://www.w3.org/1999/xlink" viewBox="0 0 1080 1080"><defs><style>.cls-1{fill:#0c0c33;font-family:Anton-Regular, Anton;font-size:89.72px;letter-spacing:.07em;}.cls-2{fill:none;stroke:url(#linear-gradient-2);stroke-miterlimit:10;stroke-width:10.1px;}.cls-3{fill:url(#linear-gradient);}</style><linearGradient id="linear-gradient" x1="211.1" y1="451.82" x2="868.9" y2="451.82" gradientUnits="userSpaceOnUse"><stop offset="0" stop-color="#292229"/><stop offset="1" stop-color="#5a1d91"/></linearGradient><linearGradient id="linear-gradient-2" x1="173.72" y1="456.57" x2="898.35" y2="456.57" xlink:href="#linear-gradient"/></defs><text class="cls-1" transform="translate(26.32 951.44)"><tspan x="0" y="0">SRI PERUMAL ENTERPRISES</tspan></text><path class="cls-3" d="M868.9,122.91v657.82H211.1V122.91h657.8ZM465.53,351.72c4.27-1.48,7.65,0,11.42.05,37.51.48,76.71-2.95,113.67-1.09,45.1,2.27,69.86,34.63,67.19,79.24-1.75,29.24-22.87,68.26-56.28,68.26h-62.27c2.35-5.37,7.57-10.6,11.94-14.46,20.02-17.66,48.26-26.2,74.73-23.41.57-2.55-.69-1.74-1.87-2.57-17.84-12.64-54.73-9.98-61.42-36.25-5.13-20.17,10.39-38.96,25.43-50.35-5.33-.59-11.19,1.92-16.18,3.74-70.74,25.84-70.37,100.99-58.07,164.18.89,4.57,7.72,35.21,9.46,36.37,53.17,6.87,105.4-18.68,133.96-63.39,75.67-118.45-61.71-222.43-106.88-322.37-2.42-5.35-4.88-15.45-7.33-19.57-.54-.91-1.57-2.61-2.76-1.71-1,.76-7.61,19.95-9.12,23.27-40.24,88.55-154.53,178.76-122.67,286.35,7.23,24.43,23.46,49.3,42.63,65.96,1.3,1.13,13.59,10.97,14.42,9.99v-202.25ZM828.62,640.58c-5.72,3.05-12.33,8.93-18.49,12.39-84.19,47.03-195.41,14.71-275.11-16.55-19.42-7.62-44.02-16.39-59.23-24.64-12.31-6.67-26.74-10.71-39.39-16.05-15.8-6.65-30.98-14.25-46.95-20.45-60.37-23.38-123.4-27.75-178.35-5.64v23.26c89.43-18.07,188.7,40.56,268.4,73.12,117.07,47.82,251.41,88.44,349.08-20.49,1.46-1.6,2.16-3.76,3.58-5.38-.69-1.37-2.61-.06-3.54.42ZM697.2,751.25c-84.31,6.97-157.47-26.58-229.98-60.99-31.93-15.18-64.87-32.44-96.6-46.89-16.09-7.34-36.07-12.93-46.89-17.24-31.08-12.37-78.27-12.69-112.63-6.47v3.48c6.61-.34,13.2-.71,19.85-.46,79.81,2.89,158.52,54.75,229.92,86.9,61.54,27.71,131.48,55.9,200.42,49.63,13.24-1.21,26.43-4.08,39.37-6.99.24-1.7-2.38-1.05-3.46-.97ZM805.26,483.61c5.31,29.96,7.74,63.98-8.04,92.33-2.06,3.84-4.34,7.51-6.82,11.01-29.82,42-89.02,60.04-147.06,56.73-9.08-.52-18.31-3.63-27.35-2.54,47.09,19.47,102.71,24.66,150.41,3.96,17.76-7.71,35.16-19.6,47.32-35.15,2.43-3.11,4.66-6.37,6.63-9.77,16.96-38.01,9.67-84.17-13.11-118.05-1.25-1.01-2.03.05-1.97,1.49ZM736.51,490.72c7.39,22.03,9.15,47.35.5,69.21-16.79,42.43-69.71,63.29-112.58,64.77-8.56.29-16.71-.92-25.19-1.7-1.1-.1-3.39-1.18-3.19.7,42.75,13.28,94.11,13.58,131.84-13.11,40.03-28.32,41.71-66.55,19.12-107.46-.98-1.77-7.04-12.34-7.68-12.71-.71-.42-2.83-.6-2.82.29ZM584.46,604.92c52.9,18.15,139.79-9.97,113.24-79.36-.73-1.91-12.29-25.62-13.96-23.39,11.76,35.5,3.65,68.59-29.88,87.2-21.99,12.2-47.75,16.86-72.75,13.44.31,1.84,2.05,1.67,3.35,2.12ZM601.44,431.33c25.31-3.44,20-44.08-5.6-41.54-28.49,2.82-24.61,45.65,5.6,41.54Z"/><rect class="cls-2" x="178.78" y="99.32" width="714.52" height="714.52"/></svg>